<?xml version="1.0" encoding="UTF-8"?>
<svg width="32" height="32" viewBox="0 0 32 32" fill="none" xmlns="http://www.w3.org/2000/svg">
  <rect width="32" height="32" rx="8" fill="#0EA5E9"/>
  <!-- D -->
  <path d="M6 8H12C15.3137 8 18 10.6863 18 14V18C18 21.3137 15.3137 24 12 24H6V8Z" fill="white"/>
  <path d="M10 12V20H12C13.1046 20 14 19.1046 14 18V14C14 12.8954 13.1046 12 12 12H10Z" fill="#0EA5E9"/>
  <!-- K -->
  <path d="M19 8H22V24H19V8Z" fill="white"/>
  <path d="M22 8V17H23L28 8H24L22 12V8Z" fill="white"/>
  <path d="M22 16L23 16L28 24H24L22 20V16Z" fill="white"/>
</svg>